<svg width="22.000000" height="22.000000" viewBox="0 0 22 22" fill="none" xmlns="http://www.w3.org/2000/svg" xmlns:xlink="http://www.w3.org/1999/xlink">
	<desc>
			Created with Pixso.
	</desc>
	<defs/>
	<path id="icon" d="M0 11C0 17.07 4.92 22 11 22C17.07 22 22 17.07 22 11C22 4.92 17.07 0 11 0C4.92 0 0 4.92 0 11ZM20 11C20 12.9 19.4 14.67 18.39 16.12C17.27 14.63 14.62 14 11 14C13.21 14 15 12.47 15 9.19C15 6.92 13.41 5 11 5C8.57 5 7 6.75 7 9C7 12.42 8.76 14 11 14C7.37 14 4.72 14.63 3.6 16.12C2.59 14.67 2 12.9 2 11C2 6.02 6.02 2 11 2C15.97 2 20 6.02 20 11ZM11 12C9.81 12 9 11.26 9 9C9 7.81 9.73 7 11 7C12.21 7 13 7.95 13 9.19C13 11.29 12.17 12 11 12ZM11 16C14.56 16 16.67 16.68 16.96 17.73C15.37 19.14 13.28 20 11 20C8.71 20 6.62 19.14 5.03 17.73C5.32 16.68 7.43 16 11 16Z" fill="#9564AA" fill-opacity="1.000000" fill-rule="evenodd"/>
</svg>
