<svg width="22.000000" height="18.000000" viewBox="0 0 22 18" fill="none" xmlns="http://www.w3.org/2000/svg" xmlns:xlink="http://www.w3.org/1999/xlink">
	<desc>
			Created with Pixso.
	</desc>
	<defs/>
	<path id="icon" d="M6.18 2.46C6.08 2.62 6 2.74 5.93 2.84C5.89 2.91 5.84 2.96 5.81 3L3 3C1.34 3 0 4.34 0 6L0 15C0 16.65 1.34 18 3 18L19 18C20.65 18 22 16.65 22 15L22 6C22 4.34 20.65 3 19 3L16.18 3C16.15 2.96 16.1 2.91 16.06 2.84C15.99 2.74 15.91 2.62 15.81 2.46C15.77 2.4 15.67 2.23 15.6 2.11L15.51 1.97C14.68 0.62 14.08 0 13 0L9 0C7.91 0 7.31 0.62 6.48 1.97L6.39 2.11C6.32 2.23 6.22 2.4 6.18 2.46ZM2 6C2 5.44 2.44 5 3 5L6 5C6.66 5 7.11 4.63 7.56 4.01C7.66 3.86 7.76 3.71 7.88 3.51C7.93 3.44 8.04 3.26 8.11 3.14L8.18 3.02C8.64 2.28 8.91 2 9 2L13 2C13.08 2 13.35 2.28 13.81 3.02L13.88 3.14C13.95 3.26 14.06 3.44 14.11 3.51C14.23 3.71 14.33 3.86 14.43 4.01C14.88 4.63 15.33 5 16 5L19 5C19.55 5 20 5.44 20 6L20 15C20 15.55 19.55 16 19 16L3 16C2.44 16 2 15.55 2 15L2 6ZM6 10C6 12.76 8.23 15 11 15C13.76 15 16 12.76 16 10C16 7.23 13.76 5 11 5C8.23 5 6 7.23 6 10ZM19 7C19 7.55 18.55 8 18 8C17.44 8 17 7.55 17 7C17 6.44 17.44 6 18 6C18.55 6 19 6.44 19 7ZM14 10C14 11.65 12.65 13 11 13C9.34 13 8 11.65 8 10C8 8.34 9.34 7 11 7C12.65 7 14 8.34 14 10Z" fill="#9564AA" fill-opacity="1.000000" fill-rule="evenodd"/>
</svg>
