<svg width="22.374084" height="287.803223" viewBox="0 0 22.3741 287.803" fill="none" xmlns="http://www.w3.org/2000/svg" xmlns:xlink="http://www.w3.org/1999/xlink">
  <symbol id="profile">
	  <path d="M0.18 11C0.18 17.07 5.11 22 11.18 22C17.26 22 22.18 17.07 22.18 11C22.18 4.92 17.26 0 11.18 0C5.11 0 0.18 4.92 0.18 11ZM20.18 11C20.18 12.9 19.59 14.67 18.58 16.12C17.46 14.63 14.81 14 11.18 14C13.4 14 15.18 12.47 15.18 9.19C15.18 6.92 13.6 5 11.18 5C8.76 5 7.18 6.75 7.18 9C7.18 12.42 8.94 14 11.18 14C7.55 14 4.91 14.63 3.78 16.12C2.77 14.67 2.18 12.9 2.18 11C2.18 6.02 6.21 2 11.18 2C16.15 2 20.18 6.02 20.18 11ZM11.18 12C10 12 9.18 11.26 9.18 9C9.18 7.81 9.92 7 11.18 7C12.4 7 13.18 7.95 13.18 9.19C13.18 11.29 12.36 12 11.18 12ZM11.18 16C14.75 16 16.85 16.68 17.15 17.73C15.56 19.14 13.47 20 11.18 20C8.89 20 6.81 19.14 5.22 17.73C5.51 16.68 7.61 16 11.18 16Z" fill="#9564AA" fill-opacity="1.000000" fill-rule="evenodd"/>
  </symbol>

  <symbol id="photos">
	  <path d="M6.37 49.46C6.27 49.62 6.19 49.74 6.12 49.84C6.07 49.91 6.03 49.96 6 50L3.18 50C1.53 50 0.18 51.34 0.18 53L0.18 62C0.18 63.65 1.53 65 3.18 65L19.18 65C20.84 65 22.18 63.65 22.18 62L22.18 53C22.18 51.34 20.84 50 19.18 50L16.37 50C16.33 49.96 16.29 49.91 16.25 49.84C16.17 49.74 16.1 49.62 16 49.46C15.96 49.4 15.86 49.23 15.78 49.11L15.7 48.97C14.87 47.62 14.27 47 13.18 47L9.18 47C8.1 47 7.49 47.62 6.66 48.97L6.58 49.11C6.51 49.23 6.41 49.4 6.37 49.46ZM2.18 53C2.18 52.44 2.63 52 3.18 52L6.18 52C6.85 52 7.29 51.63 7.74 51.01C7.85 50.86 7.95 50.71 8.07 50.51C8.11 50.44 8.22 50.26 8.3 50.14L8.37 50.02C8.82 49.28 9.1 49 9.18 49L13.18 49C13.27 49 13.54 49.28 13.99 50.02L14.07 50.14C14.14 50.26 14.25 50.44 14.29 50.51C14.42 50.71 14.52 50.86 14.62 51.01C15.07 51.63 15.52 52 16.18 52L19.18 52C19.73 52 20.18 52.44 20.18 53L20.18 62C20.18 62.55 19.73 63 19.18 63L3.18 63C2.63 63 2.18 62.55 2.18 62L2.18 53ZM6.18 57C6.18 59.76 8.42 62 11.18 62C13.94 62 16.18 59.76 16.18 57C16.18 54.23 13.94 52 11.18 52C8.42 52 6.18 54.23 6.18 57ZM19.18 54C19.18 54.55 18.73 55 18.18 55C17.63 55 17.18 54.55 17.18 54C17.18 53.44 17.63 53 18.18 53C18.73 53 19.18 53.44 19.18 54ZM14.18 57C14.18 58.65 12.84 60 11.18 60C9.53 60 8.18 58.65 8.18 57C8.18 55.34 9.53 54 11.18 54C12.84 54 14.18 55.34 14.18 57Z" fill="#9564AA" fill-opacity="1.000000" fill-rule="evenodd"/>
  </symbol>

  <symbol id="message">
	  <path id="icon" d="M4 14.5363L8.05786 12L13.3333 12C14.0697 12 14.6666 11.4031 14.6666 10.6667L14.6666 2.66675C14.6666 1.9303 14.0697 1.33337 13.3333 1.33337L2.66663 1.33337C1.93024 1.33337 1.33331 1.9303 1.33331 2.66675L1.33331 10.6667C1.33331 11.4031 1.93024 12 2.66663 12L4 12L4 14.5363ZM5.33331 12.1305L7.67548 10.6667L13.3333 10.6667L13.3333 2.66675L2.66663 2.66675L2.66663 10.6667L5.33331 10.6667L5.33331 12.1305ZM4.66663 4.66675L4.66663 6L10.6666 6L10.6666 4.66675L4.66663 4.66675ZM4.66663 8.66675L4.66663 7.33337L9.33331 7.33337L9.33331 8.66675L4.66663 8.66675Z" clip-rule="evenodd" fill="#9564AA" fill-opacity="1.000000" fill-rule="evenodd"/>
  </symbol>

  <symbol id="favorites">
	  <path d="M15.74 134.8C14.29 134.8 13.35 134.97 12.28 135.49C11.89 135.68 11.52 135.92 11.17 136.19C10.84 135.93 10.48 135.71 10.1 135.52C9.01 134.99 8.03 134.8 6.64 134.8C2.9 134.8 0.18 137.88 0.18 141.88C0.18 144.89 1.88 147.81 5.03 150.63C6.69 152.11 8.8 153.57 10.32 154.35L11.18 154.8L12.05 154.35C13.56 153.57 15.68 152.11 17.33 150.63C20.49 147.81 22.18 144.89 22.18 141.88C22.18 137.92 19.44 134.81 15.74 134.8ZM20.18 141.88C20.18 144.24 18.77 146.67 16 149.15C14.48 150.5 12.54 151.85 11.18 152.56C9.82 151.85 7.88 150.5 6.37 149.15C3.6 146.67 2.18 144.24 2.18 141.88C2.18 138.92 4.07 136.79 6.64 136.79C7.75 136.79 8.43 136.92 9.22 137.3C9.68 137.53 10.09 137.83 10.45 138.21L11.18 138.99L11.91 138.21C12.28 137.81 12.69 137.5 13.16 137.28C13.93 136.9 14.57 136.79 15.73 136.79C18.27 136.8 20.18 138.96 20.18 141.88Z" fill="#9564AA" fill-opacity="1.000000" fill-rule="evenodd"/>
  </symbol>

  <symbol id="guests">
	  <path id="Subtract" d="M7.45801 0C9.27637 0 11.0151 0.953735 12.6356 2.52075C13.1884 3.05542 13.6885 3.6261 14.1287 4.19714C14.3944 4.54163 14.5831 4.81262 14.6863 4.97412L14.916 5.33337L14.6863 5.6925C14.5831 5.854 14.3944 6.125 14.1287 6.4696C13.6885 7.04053 13.1884 7.61133 12.6356 8.14587C11.0151 9.71289 9.27637 10.6666 7.45801 10.6666C5.63965 10.6666 3.90088 9.71289 2.28052 8.14587C1.72766 7.61133 1.22754 7.04053 0.787292 6.4696C0.521606 6.125 0.333008 5.854 0.229736 5.6925L0 5.33337L0.229736 4.97412C0.333008 4.81262 0.521606 4.54163 0.787292 4.19714C1.22754 3.6261 1.72766 3.05542 2.28052 2.52075C3.90088 0.953735 5.63965 0 7.45801 0ZM11.7087 3.47925C12.2115 3.96545 12.6697 4.48853 13.0729 5.01123C13.1599 5.12415 13.2404 5.23193 13.3139 5.33337C13.2404 5.43481 13.1599 5.54248 13.0729 5.6554C12.6697 6.17822 12.2115 6.70117 11.7087 7.18738C10.313 8.53711 8.86139 9.33337 7.45801 9.33337C6.05463 9.33337 4.60303 8.53711 3.2074 7.18738C2.70459 6.70117 2.24628 6.17822 1.8432 5.6554C1.7561 5.54248 1.67566 5.43481 1.60211 5.33337C1.67566 5.23193 1.7561 5.12415 1.8432 5.01123C2.24628 4.48853 2.70459 3.96545 3.2074 3.47925C4.60303 2.12964 6.05463 1.33337 7.45801 1.33337C8.86139 1.33337 10.313 2.12964 11.7087 3.47925Z" clip-rule="evenodd" fill="#DADADA" fill-opacity="1.000000" fill-rule="evenodd"/>
  </svg>
  </symbol>

  <symbol id="settings">
	  <path d="M20.06 238.48L17.84 240.7L15 239.91L14.19 240.24L12.73 242.8L9.6 242.8L8.15 240.23L7.34 239.89L4.5 240.67L2.28 238.46L3.07 235.62L2.74 234.81L0.18 233.35L0.18 230.21L2.75 228.77L3.09 227.96L2.31 225.12L4.52 222.9L7.36 223.69L8.17 223.36L9.63 220.8L12.76 220.8L14.21 223.37L15.02 223.71L17.86 222.93L20.08 225.14L19.29 227.98L19.62 228.79L22.18 230.25L22.18 233.38L19.61 234.83L19.27 235.64L20.06 238.48ZM17.16 235.51L18.03 233.43L20.18 232.21L20.18 231.41L18.04 230.19L17.18 228.11L17.84 225.73L17.27 225.16L14.89 225.82L12.81 224.95L11.59 222.8L10.79 222.8L9.57 224.95L7.49 225.81L5.11 225.14L4.55 225.71L5.2 228.09L4.33 230.17L2.18 231.38L2.18 232.19L4.33 233.41L5.19 235.49L4.52 237.87L5.09 238.44L7.47 237.78L9.55 238.65L10.76 240.8L11.57 240.8L12.79 238.65L14.87 237.79L17.25 238.46L17.82 237.89L17.16 235.51ZM7.18 231.8C7.18 234.01 8.97 235.8 11.18 235.8C13.39 235.8 15.18 234.01 15.18 231.8C15.18 229.59 13.39 227.8 11.18 227.8C8.97 227.8 7.18 229.59 7.18 231.8ZM11.18 233.8C12.29 233.8 13.18 232.9 13.18 231.8C13.18 230.7 12.29 229.8 11.18 229.8C10.08 229.8 9.18 230.7 9.18 231.8C9.18 232.9 10.08 233.8 11.18 233.8Z" fill="#9564AA" fill-opacity="1.000000" fill-rule="evenodd"/>
  </symbol>

  <symbol id="logout">
	  <path d="M11.77 276.8L8.47 273.51L9.89 272.09L15.6 277.8L9.89 283.51L8.47 282.09L11.77 278.8L1.18 278.8L1.18 276.8L11.77 276.8ZM15.18 267.8L19.18 267.8C20.29 267.8 21.18 268.69 21.18 269.8L21.18 285.8C21.18 286.9 20.29 287.8 19.18 287.8L15.18 287.8L15.18 285.8L19.18 285.8L19.18 269.8L15.18 269.8L15.18 267.8Z" fill="#9564AA" fill-opacity="1.000000" fill-rule="evenodd"/>
  </symbol>
</svg>
